<svg preserveAspectRatio="none" overflow="visible" style="display: block;" width="1729.33" height="1457.99" viewBox="0 0 1729.33 1457.99" fill="none" xmlns="http://www.w3.org/2000/svg">
<g id="Group 2085662843" opacity="0.53">
<path id="Vector 2960" d="M0.674997 5.99201e-05V1457.99" stroke="#9EA1AD" stroke-width="1.34999"/>
<path id="Vector 2961" d="M115.867 5.99201e-05V1457.99" stroke="#9EA1AD" stroke-width="1.34999"/>
<path id="Vector 2962" d="M231.08 0V1457.99" stroke="#9EA1AD" stroke-width="1.34999"/>
<path id="Vector 2963" d="M346.272 0V1457.99" stroke="#9EA1AD" stroke-width="1.34999"/>
<path id="Vector 2964" d="M461.467 5.99201e-05V1457.99" stroke="#9EA1AD" stroke-width="1.34999"/>
<path id="Vector 2965" d="M576.67 0V1457.99" stroke="#9EA1AD" stroke-width="1.34999"/>
<path id="Vector 2966" d="M691.862 0V1457.99" stroke="#9EA1AD" stroke-width="1.34999"/>
<path id="Vector 2967" d="M807.064 0V1457.99" stroke="#9EA1AD" stroke-width="1.34999"/>
<path id="Vector 2968" d="M922.268 5.99201e-05V1457.99" stroke="#9EA1AD" stroke-width="1.34999"/>
<path id="Vector 2969" d="M1037.46 5.99201e-05V1457.99" stroke="#9EA1AD" stroke-width="1.34999"/>
<path id="Vector 2970" d="M1152.66 0V1457.99" stroke="#9EA1AD" stroke-width="1.34999"/>
<path id="Vector 2971" d="M1267.87 5.99201e-05V1457.99" stroke="#9EA1AD" stroke-width="1.34999"/>
<path id="Vector 2972" d="M1383.06 5.99201e-05V1457.99" stroke="#9EA1AD" stroke-width="1.34999"/>
<path id="Vector 2973" d="M1498.25 5.99201e-05V1457.99" stroke="#9EA1AD" stroke-width="1.34999"/>
<path id="Vector 2974" d="M1613.45 5.99201e-05V1457.99" stroke="#9EA1AD" stroke-width="1.34999"/>
<path id="Vector 2975" d="M1728.66 5.99201e-05V1457.99" stroke="#9EA1AD" stroke-width="1.34999"/>
</g>
</svg>
